<?xml version="1.0" encoding="iso-8859-1"?>
<svg fill="#000000" height="800px" width="800px" version="1.1" id="Layer_1" xmlns="http://www.w3.org/2000/svg" xmlns:xlink="http://www.w3.org/1999/xlink" 
	 viewBox="0 0 512 512" xml:space="preserve">
<g>
	<g>
		<g>
			<path d="M324.267,290.133c-18.825,0-34.133,15.309-34.133,34.133c0,18.825,15.309,34.133,34.133,34.133
				c18.825,0,34.133-15.309,34.133-34.133C358.4,305.442,343.091,290.133,324.267,290.133z"/>
			<path d="M187.733,153.6c-18.825,0-34.133,15.309-34.133,34.133s15.309,34.133,34.133,34.133s34.133-15.309,34.133-34.133
				S206.558,153.6,187.733,153.6z"/>
			<path d="M187.733,290.133c-18.825,0-34.133,15.309-34.133,34.133c0,18.825,15.309,34.133,34.133,34.133
				s34.133-15.309,34.133-34.133C221.867,305.442,206.558,290.133,187.733,290.133z"/>
			<path d="M324.267,153.6c-18.825,0-34.133,15.309-34.133,34.133s15.309,34.133,34.133,34.133
				c18.825,0,34.133-15.309,34.133-34.133S343.091,153.6,324.267,153.6z"/>
			<path d="M256,0C114.842,0,0,114.842,0,256s114.842,256,256,256s256-114.842,256-256S397.158,0,256,0z M256,443.733
				c-103.518,0-187.733-84.215-187.733-187.733S152.482,68.267,256,68.267S443.733,152.482,443.733,256S359.518,443.733,256,443.733
				z"/>
			<path d="M256,85.333c-94.106,0-170.667,76.561-170.667,170.667S161.894,426.667,256,426.667S426.667,350.106,426.667,256
				S350.106,85.333,256,85.333z M187.733,375.467c-28.237,0-51.2-22.963-51.2-51.2c0-28.237,22.963-51.2,51.2-51.2
				s51.2,22.963,51.2,51.2C238.933,352.503,215.97,375.467,187.733,375.467z M187.733,238.933c-28.237,0-51.2-22.963-51.2-51.2
				s22.963-51.2,51.2-51.2s51.2,22.963,51.2,51.2S215.97,238.933,187.733,238.933z M324.267,375.467
				c-28.237,0-51.2-22.963-51.2-51.2c0-28.237,22.963-51.2,51.2-51.2c28.237,0,51.2,22.963,51.2,51.2
				C375.467,352.503,352.503,375.467,324.267,375.467z M324.267,238.933c-28.237,0-51.2-22.963-51.2-51.2s22.963-51.2,51.2-51.2
				c28.237,0,51.2,22.963,51.2,51.2S352.503,238.933,324.267,238.933z"/>
		</g>
	</g>
</g>
</svg>